<svg width="26" height="26" viewBox="0 0 26 26" fill="none" xmlns="http://www.w3.org/2000/svg">
<path fill-rule="evenodd" clip-rule="evenodd" d="M8.79214 0.736907C11.5598 0.087698 14.4402 0.0876975 17.2079 0.736906C21.2048 1.67445 24.3256 4.79525 25.2631 8.79214C25.9123 11.5598 25.9123 14.4402 25.2631 17.2079C24.3256 21.2047 21.2048 24.3256 17.2079 25.2631C14.4402 25.9123 11.5598 25.9123 8.79215 25.2631C4.79526 24.3256 1.67445 21.2048 0.736908 17.2079C0.0876973 14.4402 0.0876973 11.5598 0.736908 8.79214C1.67445 4.79525 4.79525 1.67445 8.79214 0.736907ZM11.178 10.0272C10.8602 9.70947 10.345 9.70947 10.0272 10.0272C9.70947 10.345 9.70947 10.8602 10.0272 11.178L11.8492 13L10.0272 14.822C9.70947 15.1397 9.70947 15.6549 10.0272 15.9727C10.345 16.2905 10.8602 16.2905 11.178 15.9727L13 14.1507L14.822 15.9727C15.1397 16.2905 15.6549 16.2905 15.9727 15.9727C16.2905 15.6549 16.2905 15.1397 15.9727 14.822L14.1507 13L15.9727 11.178C16.2905 10.8602 16.2905 10.345 15.9727 10.0272C15.6549 9.70947 15.1397 9.70947 14.822 10.0272L13 11.8492L11.178 10.0272Z" fill="#1E1E1E"/>
</svg>
