<svg width="163" height="47" viewBox="0 0 163 47" fill="none" xmlns="http://www.w3.org/2000/svg">
<g clipPath="url(#clip0_578_633)">
<mask id="mask0_578_633" style="mask-type:luminance" maskUnits="userSpaceOnUse" x="0" y="0" width="163" height="47">
<path d="M0 0.00268555H162.606V46.9335H0V0.00268555Z" fill="white"/>
</mask>
<g mask="url(#mask0_578_633)">
<path d="M1.1635 27.5427H3.06217C3.73894 27.5427 4.28748 28.0913 4.28748 28.768V40.0358C4.28748 43.4195 7.03045 46.1625 10.4141 46.1625H15.3142C15.5849 46.1625 15.8043 45.943 15.8043 45.6723V38.798C15.8043 38.5273 15.5849 38.3079 15.3141 38.3079H11.553C10.8762 38.3079 10.3277 37.7593 10.3277 37.0825V9.84958C10.3277 9.17281 10.8762 8.62418 11.553 8.62418H15.3142C15.5849 8.62418 15.8043 8.40478 15.8043 8.13411V1.25979C15.8043 0.989113 15.5849 0.769619 15.3141 0.769619H10.4141C7.03045 0.769619 4.28748 3.51259 4.28748 6.89629V18.1565C4.28748 18.8332 3.73894 19.3819 3.06217 19.3819H1.1635C0.892825 19.3819 0.67334 19.6013 0.67334 19.872V27.0525C0.67334 27.3233 0.892825 27.5427 1.1635 27.5427Z" fill="#F9AB00"/>
<path d="M1.1635 27.5427H3.06217C3.73894 27.5427 4.28748 28.0913 4.28748 28.768V40.0358C4.28748 43.4195 7.03045 46.1625 10.4141 46.1625H15.3142C15.5849 46.1625 15.8043 45.943 15.8043 45.6723V38.798C15.8043 38.5273 15.5849 38.3079 15.3141 38.3079H11.553C10.8762 38.3079 10.3277 37.7593 10.3277 37.0825V9.84958C10.3277 9.17281 10.8762 8.62418 11.553 8.62418H15.3142C15.5849 8.62418 15.8043 8.40478 15.8043 8.1341V1.25979C15.8043 0.989112 15.5849 0.769621 15.3141 0.769621H10.4141C7.03045 0.769621 4.28748 3.51259 4.28748 6.89629V18.1565C4.28748 18.8332 3.73894 19.3819 3.06217 19.3819H1.1635C0.892825 19.3819 0.67334 19.6013 0.67334 19.872V27.0525C0.67334 27.3233 0.892825 27.5427 1.1635 27.5427Z" stroke="#0D0B0B" stroke-width="0.818104" stroke-miterlimit="10"/>
<path d="M161.443 19.3894H159.544C158.867 19.3894 158.319 18.8408 158.319 18.1641V6.89629C158.319 3.51259 155.576 0.769619 152.192 0.769619H147.292C147.021 0.769619 146.802 0.989113 146.802 1.25979L146.802 8.13411C146.802 8.40478 147.021 8.62426 147.292 8.62426H151.053C151.73 8.62426 152.278 9.17281 152.278 9.84958V37.0825C152.278 37.7593 151.73 38.3079 151.053 38.3079H147.292C147.021 38.3079 146.802 38.5273 146.802 38.798V45.6723C146.802 45.9431 147.021 46.1625 147.292 46.1625H152.192C155.576 46.1625 158.319 43.4195 158.319 40.0358V28.7756C158.319 28.0989 158.867 27.5502 159.544 27.5502H161.443C161.713 27.5502 161.933 27.3308 161.933 27.0601V19.8796C161.933 19.6088 161.713 19.3894 161.443 19.3894Z" fill="#F9AB00"/>
<path d="M161.443 19.3894H159.544C158.867 19.3894 158.319 18.8408 158.319 18.1641V6.89629C158.319 3.51259 155.576 0.769621 152.192 0.769621H147.292C147.021 0.769621 146.802 0.989112 146.802 1.25979L146.802 8.1341C146.802 8.40478 147.021 8.62426 147.292 8.62426H151.053C151.73 8.62426 152.278 9.17281 152.278 9.84958V37.0825C152.278 37.7593 151.73 38.3079 151.053 38.3079H147.292C147.021 38.3079 146.802 38.5273 146.802 38.798V45.6723C146.802 45.9431 147.021 46.1625 147.292 46.1625H152.192C155.576 46.1625 158.319 43.4195 158.319 40.0358V28.7756C158.319 28.0989 158.867 27.5502 159.544 27.5502H161.443C161.713 27.5502 161.933 27.3308 161.933 27.0601V19.8796C161.933 19.6088 161.713 19.3894 161.443 19.3894Z" stroke="#0D0B0B" stroke-width="0.818104" stroke-miterlimit="10"/>
<path d="M36.9391 15.9076C36.3807 17.0032 35.5433 17.851 34.4269 18.4513C33.3101 19.0518 31.9197 19.3519 30.2558 19.3519H27.0643V4.81616H30.2558C31.9197 4.81616 33.3101 5.11629 34.4269 5.71679C35.5433 6.31712 36.3807 7.15996 36.9391 8.24472C37.4971 9.3299 37.7765 10.6097 37.7765 12.0841C37.7765 13.5376 37.4971 14.8124 36.9391 15.9076ZM36.6548 2.20922C34.9168 1.25081 32.847 0.771353 30.4455 0.771353H22.7983V23.3967H30.4455C32.847 23.3967 34.9168 22.9227 36.6548 21.9747C38.3927 21.0267 39.7303 19.6996 40.6679 17.9931C41.6051 16.2868 42.074 14.3172 42.074 12.0841C42.074 9.85131 41.6051 7.88673 40.6679 6.19069C39.7303 4.49524 38.3927 3.16797 36.6548 2.20922Z" fill="#0D0B0B"/>
<path d="M48.3521 13.3788C48.4383 13.0827 48.5463 12.8029 48.6788 12.5414C49.0579 11.7939 49.5793 11.2093 50.2429 10.7876C50.9066 10.3664 51.6383 10.1556 52.4391 10.1556C53.0499 10.1556 53.5926 10.2558 54.0665 10.4559C54.5404 10.6562 54.9459 10.914 55.2831 11.23C55.6199 11.546 55.8835 11.8936 56.0732 12.2728C56.2627 12.652 56.3679 13.0208 56.3891 13.3788H48.3521ZM56.7683 7.88044C55.5883 7.14323 54.1347 6.77446 52.4076 6.77446C50.8063 6.77446 49.3843 7.16951 48.1416 7.95954C46.8983 8.7494 45.9188 9.79768 45.2028 11.1036C44.4864 12.41 44.1284 13.8321 44.1284 15.3695C44.1284 17.0128 44.4918 18.4772 45.2186 19.7619C45.9454 21.0472 46.9458 22.0583 48.2206 22.7955C49.4949 23.5325 50.9432 23.9015 52.5655 23.9015C54.3559 23.9015 55.8622 23.5168 57.0843 22.748C58.3058 21.9794 59.2963 20.9311 60.0547 19.604L56.7051 17.9607C56.3259 18.614 55.7991 19.1566 55.1251 19.5881C54.4506 20.0201 53.6187 20.2359 52.6287 20.2359C51.7859 20.2359 51.0221 20.0413 50.3378 19.6513C49.653 19.2617 49.1103 18.693 48.7104 17.9449C48.4555 17.4691 48.2826 16.9261 48.19 16.3176H60.2758C60.2965 16.2123 60.3178 16.0385 60.3391 15.7962C60.3597 15.5542 60.3707 15.2644 60.3707 14.9272C60.3707 13.4316 60.065 12.0674 59.4542 10.8349C58.8431 9.6026 57.9478 8.61817 56.7683 7.88044Z" fill="#0D0B0B"/>
<path d="M69.5218 17.7704H69.269L65.1928 7.27933H60.4844L67.3099 23.3951H71.4178L78.3065 7.27933H73.6614L69.5218 17.7704Z" fill="#0D0B0B"/>
<path d="M80.3442 23.3951H84.6102V14.3576H93.6792V10.3128H84.6102V4.81458H94.6905V0.769852H80.3442V23.3951Z" fill="#0D0B0B"/>
<path d="M100.162 13.3788C100.248 13.0827 100.356 12.8029 100.489 12.5414C100.868 11.7939 101.389 11.2093 102.053 10.7876C102.717 10.3664 103.448 10.1556 104.249 10.1556C104.86 10.1556 105.403 10.2558 105.877 10.4559C106.35 10.6562 106.756 10.914 107.093 11.23C107.43 11.546 107.693 11.8936 107.883 12.2728C108.073 12.652 108.178 13.0208 108.199 13.3788H100.162ZM108.578 7.88044C107.398 7.14323 105.945 6.77446 104.218 6.77446C102.616 6.77446 101.194 7.16951 99.9516 7.95954C98.7083 8.7494 97.7288 9.79768 97.0128 11.1036C96.2965 12.41 95.9385 13.8321 95.9385 15.3695C95.9385 17.0128 96.3018 18.4772 97.0285 19.7619C97.7554 21.0472 98.7557 22.0583 100.031 22.7955C101.305 23.5325 102.753 23.9015 104.375 23.9015C106.166 23.9015 107.672 23.5168 108.894 22.748C110.116 21.9794 111.106 20.9311 111.865 19.604L108.515 17.9607C108.136 18.614 107.609 19.1566 106.935 19.5881C106.261 20.0201 105.429 20.2359 104.439 20.2359C103.596 20.2359 102.832 20.0413 102.148 19.6513C101.463 19.2617 100.92 18.693 100.52 17.9449C100.265 17.4691 100.093 16.9261 100 16.3176H112.086C112.107 16.2123 112.128 16.0385 112.149 15.7962C112.17 15.5542 112.181 15.2644 112.181 14.9272C112.181 13.4316 111.875 12.0674 111.264 10.8349C110.653 9.6026 109.758 8.61817 108.578 7.88044Z" fill="#0D0B0B"/>
<path d="M122.852 13.7896L120.482 13.2208C119.892 13.0736 119.387 12.8525 118.966 12.5572C118.544 12.2624 118.334 11.9148 118.334 11.5144C118.334 11.1352 118.544 10.8088 118.966 10.5348C119.387 10.2613 119.956 10.124 120.672 10.124C121.283 10.124 121.857 10.2504 122.394 10.5032C122.931 10.756 123.368 11.1984 123.705 11.8304L127.245 10.282C126.865 9.48164 126.36 8.82353 125.728 8.30709C125.096 7.79107 124.348 7.40646 123.484 7.15359C122.62 6.90089 121.651 6.77446 120.577 6.77446C119.418 6.77446 118.36 6.97494 117.401 7.37487C116.443 7.77532 115.684 8.33362 115.126 9.0496C114.568 9.76601 114.289 10.6089 114.289 11.5776C114.289 12.4417 114.504 13.205 114.937 13.8686C115.368 14.5321 115.932 15.0802 116.627 15.5117C117.322 15.9437 118.059 16.244 118.839 16.4123L120.735 16.8231C121.178 16.9075 121.609 17.0181 122.031 17.155C122.452 17.2922 122.805 17.4817 123.089 17.7237C123.374 17.9661 123.516 18.2979 123.516 18.7191C123.516 19.3092 123.242 19.7145 122.694 19.9357C122.146 20.157 121.535 20.2675 120.861 20.2675C120.04 20.2675 119.323 20.0729 118.713 19.6829C118.102 19.2933 117.617 18.7191 117.259 17.9607L113.562 19.5723C113.857 20.352 114.309 21.0684 114.921 21.7211C115.532 22.3743 116.327 22.9011 117.307 23.301C118.286 23.701 119.471 23.9015 120.861 23.9015C122.126 23.9015 123.273 23.6852 124.306 23.2536C125.338 22.8221 126.159 22.2108 126.771 21.4209C127.381 20.6309 127.687 19.7096 127.687 18.6558C127.687 17.4764 127.281 16.4652 126.47 15.6223C125.659 14.78 124.453 14.1688 122.852 13.7896Z" fill="#0D0B0B"/>
<path d="M138.838 19.6191C138.543 19.7139 138.227 19.7612 137.89 19.7612C137.174 19.7612 136.658 19.577 136.342 19.2083C136.026 18.84 135.868 18.2657 135.868 17.486V10.8186H139.818V7.27944H135.868V2.72915H131.728V7.27944H128.916V10.8186H131.728V18.2445C131.728 19.9301 132.202 21.2519 133.15 22.2103C134.098 23.1691 135.404 23.6479 137.069 23.6479C137.574 23.6479 138.064 23.6006 138.538 23.5058C139.012 23.411 139.481 23.2797 139.944 23.1109V19.0661C139.502 19.3401 139.133 19.5242 138.838 19.6191Z" fill="#0D0B0B"/>
<path d="M31.0867 46.1625H131.356C135.973 46.1625 139.715 42.4199 139.715 37.8033C139.715 33.1867 135.973 29.4441 131.356 29.4441H31.0867C26.4701 29.4441 22.7275 33.1867 22.7275 37.8033C22.7275 42.4199 26.4701 46.1625 31.0867 46.1625Z" fill="white"/>
<path d="M31.0867 46.1625H131.356C135.973 46.1625 139.715 42.4199 139.715 37.8033C139.715 33.1867 135.973 29.4441 131.356 29.4441H31.0867C26.4701 29.4441 22.7275 33.1867 22.7275 37.8033C22.7275 42.4199 26.4701 46.1625 31.0867 46.1625Z" stroke="#0D0B0B" stroke-width="0.818104" stroke-miterlimit="10" stroke-linejoin="round"/>
<path d="M68.1844 34.1544V40.4117H67.4267V34.1544H68.1844ZM69.7037 40.4117V34.1544H70.4247V36.4642H70.4858C70.5388 36.3828 70.6121 36.2789 70.7058 36.1526C70.8015 36.0243 70.938 35.9102 71.1152 35.8104C71.2945 35.7086 71.5369 35.6576 71.8424 35.6576C72.2376 35.6576 72.5859 35.7564 72.8873 35.954C73.1888 36.1516 73.424 36.4317 73.5931 36.7942C73.7622 37.1568 73.8467 37.5845 73.8467 38.0775C73.8467 38.5745 73.7622 39.0053 73.5931 39.3699C73.424 39.7324 73.1898 40.0135 72.8904 40.2131C72.591 40.4107 72.2457 40.5095 71.8546 40.5095C71.5532 40.5095 71.3118 40.4596 71.1305 40.3598C70.9492 40.258 70.8097 40.1429 70.7119 40.0145C70.6142 39.8842 70.5388 39.7762 70.4858 39.6907H70.4003V40.4117H69.7037ZM70.4125 38.0652C70.4125 38.4197 70.4644 38.7323 70.5683 39.0032C70.6722 39.2721 70.824 39.4829 71.0236 39.6357C71.2232 39.7864 71.4676 39.8618 71.7568 39.8618C72.0583 39.8618 72.3099 39.7823 72.5115 39.6235C72.7152 39.4626 72.868 39.2466 72.9698 38.9757C73.0737 38.7028 73.1256 38.3993 73.1256 38.0652C73.1256 37.7353 73.0747 37.4379 72.9729 37.1731C72.8731 36.9063 72.7213 36.6954 72.5176 36.5406C72.316 36.3838 72.0624 36.3054 71.7568 36.3054C71.4635 36.3054 71.2171 36.3797 71.0175 36.5284C70.8178 36.6751 70.6671 36.8808 70.5653 37.1456C70.4634 37.4083 70.4125 37.7149 70.4125 38.0652ZM76.3307 40.5217C76.0333 40.5217 75.7634 40.4657 75.521 40.3537C75.2786 40.2396 75.0862 40.0757 74.9436 39.8618C74.801 39.6459 74.7297 39.3851 74.7297 39.0796C74.7297 38.8107 74.7827 38.5928 74.8886 38.4258C74.9945 38.2567 75.1361 38.1243 75.3133 38.0286C75.4905 37.9328 75.686 37.8616 75.8999 37.8147C76.1158 37.7658 76.3327 37.7271 76.5507 37.6986C76.8358 37.6619 77.067 37.6344 77.2442 37.6161C77.4235 37.5957 77.5538 37.5621 77.6353 37.5153C77.7188 37.4684 77.7606 37.387 77.7606 37.2709V37.2464C77.7606 36.945 77.6781 36.7107 77.5131 36.5437C77.3502 36.3767 77.1027 36.2931 76.7707 36.2931C76.4264 36.2931 76.1565 36.3685 75.961 36.5192C75.7655 36.67 75.628 36.8309 75.5485 37.002L74.8641 36.7576C74.9863 36.4724 75.1493 36.2504 75.353 36.0915C75.5587 35.9306 75.7828 35.8185 76.0252 35.7554C76.2696 35.6902 76.5099 35.6576 76.7462 35.6576C76.8969 35.6576 77.0701 35.676 77.2656 35.7126C77.4632 35.7473 77.6537 35.8196 77.837 35.9296C78.0223 36.0396 78.1761 36.2056 78.2983 36.4276C78.4205 36.6496 78.4817 36.947 78.4817 37.3197V40.4117H77.7606V39.7762H77.7239C77.675 39.8781 77.5936 39.9871 77.4795 40.1032C77.3654 40.2193 77.2137 40.318 77.0243 40.3995C76.8348 40.481 76.6036 40.5217 76.3307 40.5217ZM76.4407 39.874C76.7258 39.874 76.9662 39.818 77.1617 39.706C77.3593 39.5939 77.508 39.4493 77.6078 39.2721C77.7097 39.0949 77.7606 38.9085 77.7606 38.713V38.053C77.73 38.0897 77.6628 38.1233 77.5589 38.1538C77.4571 38.1824 77.339 38.2078 77.2045 38.2302C77.0721 38.2506 76.9428 38.2689 76.8165 38.2852C76.6922 38.2995 76.5914 38.3117 76.514 38.3219C76.3266 38.3463 76.1514 38.3861 75.9885 38.441C75.8276 38.494 75.6972 38.5745 75.5974 38.6824C75.4996 38.7883 75.4508 38.933 75.4508 39.1163C75.4508 39.3668 75.5434 39.5562 75.7288 39.6846C75.9162 39.8109 76.1535 39.874 76.4407 39.874ZM81.5698 40.5095C81.1788 40.5095 80.8335 40.4107 80.5341 40.2131C80.2347 40.0135 80.0004 39.7324 79.8313 39.3699C79.6623 39.0053 79.5778 38.5745 79.5778 38.0775C79.5778 37.5845 79.6623 37.1568 79.8313 36.7942C80.0004 36.4317 80.2357 36.1516 80.5371 35.954C80.8386 35.7564 81.1869 35.6576 81.5821 35.6576C81.8876 35.6576 82.129 35.7086 82.3062 35.8104C82.4854 35.9102 82.6219 36.0243 82.7156 36.1526C82.8113 36.2789 82.8857 36.3828 82.9386 36.4642H82.9997V34.1544H83.7208V40.4117H83.0242V39.6907H82.9386C82.8857 39.7762 82.8103 39.8842 82.7125 40.0145C82.6148 40.1429 82.4752 40.258 82.294 40.3598C82.1127 40.4596 81.8713 40.5095 81.5698 40.5095ZM81.6676 39.8618C81.9568 39.8618 82.2013 39.7864 82.4009 39.6357C82.6005 39.4829 82.7523 39.2721 82.8561 39.0032C82.96 38.7323 83.012 38.4197 83.012 38.0652C83.012 37.7149 82.961 37.4083 82.8592 37.1456C82.7573 36.8808 82.6066 36.6751 82.407 36.5284C82.2074 36.3797 81.9609 36.3054 81.6676 36.3054C81.3621 36.3054 81.1075 36.3838 80.9038 36.5406C80.7021 36.6954 80.5504 36.9063 80.4485 37.1731C80.3487 37.4379 80.2988 37.7353 80.2988 38.0652C80.2988 38.3993 80.3497 38.7028 80.4516 38.9757C80.5555 39.2466 80.7082 39.4626 80.9099 39.6235C81.1136 39.7823 81.3661 39.8618 81.6676 39.8618ZM86.5225 40.5217C86.2252 40.5217 85.9553 40.4657 85.7129 40.3537C85.4705 40.2396 85.278 40.0757 85.1354 39.8618C84.9928 39.6459 84.9215 39.3851 84.9215 39.0796C84.9215 38.8107 84.9745 38.5928 85.0804 38.4258C85.1863 38.2567 85.3279 38.1243 85.5051 38.0286C85.6823 37.9328 85.8779 37.8616 86.0917 37.8147C86.3076 37.7658 86.5246 37.7271 86.7425 37.6986C87.0277 37.6619 87.2589 37.6344 87.4361 37.6161C87.6153 37.5957 87.7457 37.5621 87.8272 37.5153C87.9107 37.4684 87.9524 37.387 87.9524 37.2709V37.2464C87.9524 36.945 87.8699 36.7107 87.705 36.5437C87.542 36.3767 87.2945 36.2931 86.9625 36.2931C86.6183 36.2931 86.3484 36.3685 86.1528 36.5192C85.9573 36.67 85.8198 36.8309 85.7404 37.002L85.056 36.7576C85.1782 36.4724 85.3411 36.2504 85.5448 36.0915C85.7506 35.9306 85.9746 35.8185 86.217 35.7554C86.4614 35.6902 86.7018 35.6576 86.9381 35.6576C87.0888 35.6576 87.2619 35.676 87.4575 35.7126C87.6551 35.7473 87.8455 35.8196 88.0288 35.9296C88.2142 36.0396 88.368 36.2056 88.4902 36.4276C88.6124 36.6496 88.6735 36.947 88.6735 37.3197V40.4117H87.9524V39.7762H87.9158C87.8669 39.8781 87.7854 39.9871 87.6713 40.1032C87.5573 40.2193 87.4055 40.318 87.2161 40.3995C87.0267 40.481 86.7955 40.5217 86.5225 40.5217ZM86.6325 39.874C86.9177 39.874 87.1581 39.818 87.3536 39.706C87.5512 39.5939 87.6999 39.4493 87.7997 39.2721C87.9015 39.0949 87.9524 38.9085 87.9524 38.713V38.053C87.9219 38.0897 87.8547 38.1233 87.7508 38.1538C87.6489 38.1824 87.5308 38.2078 87.3964 38.2302C87.264 38.2506 87.1346 38.2689 87.0083 38.2852C86.8841 38.2995 86.7833 38.3117 86.7059 38.3219C86.5185 38.3463 86.3433 38.3861 86.1803 38.441C86.0194 38.494 85.8891 38.5745 85.7893 38.6824C85.6915 38.7883 85.6426 38.933 85.6426 39.1163C85.6426 39.3668 85.7353 39.5562 85.9206 39.6846C86.108 39.8109 86.3453 39.874 86.6325 39.874ZM90.7106 37.5886V40.4117H89.9896V35.7187H90.6862V36.452H90.7473C90.8573 36.2137 91.0243 36.0222 91.2484 35.8776C91.4724 35.731 91.7617 35.6576 92.1161 35.6576C92.4339 35.6576 92.7119 35.7228 92.9502 35.8532C93.1885 35.9815 93.3739 36.177 93.5063 36.4398C93.6387 36.7005 93.7049 37.0305 93.7049 37.4297V40.4117H92.9838V37.4786C92.9838 37.1099 92.8881 36.8227 92.6966 36.617C92.5052 36.4092 92.2424 36.3054 91.9083 36.3054C91.6782 36.3054 91.4724 36.3553 91.2912 36.4551C91.1119 36.5549 90.9704 36.7005 90.8665 36.892C90.7626 37.0835 90.7106 37.3157 90.7106 37.5886Z" fill="#0D0B0B"/>
</g>
</g>
<defs>
<clipPath id="clip0_578_633">
<rect width="162.606" height="46.9308" fill="white"/>
</clipPath>
</defs>
</svg>
